<?xml version="1.0" encoding="iso-8859-1"?>
<!-- Generator: Adobe Illustrator 19.0.0, SVG Export Plug-In . SVG Version: 6.00 Build 0)  -->
<svg version="1.1" id="Layer_1" xmlns="http://www.w3.org/2000/svg" xmlns:xlink="http://www.w3.org/1999/xlink" x="0px" y="0px"
	 viewBox="0 0 489.373 489.373" style="enable-background:new 0 0 489.373 489.373;" xml:space="preserve">
<g>
	<g>
		<path id="XMLID_284_" style="fill:#E64C3D;" d="M245.2,293.721h-58.7c-2.1,0-3.9-1.8-3.9-3.9v-155.6c0-2.1,1.8-3.9,3.9-3.9h58.7
			c2.1,0,3.9,1.8,3.9,3.9v155.6C249.1,291.921,247.3,293.721,245.2,293.721z"/>
		<path style="fill:#2C2F33;" d="M458.9,345.421c1.8-4.7-0.4-9.9-5.1-11.8c-4.7-1.8-9.9,0.4-11.8,5.1c-6.9,17.5-24.1,29.3-42.9,29.3
			H209.4c-2.3,0-4.6,0.9-6.3,2.5l-86.6,82.9v-76.4c0-2.4-1-4.7-2.7-6.4c-1.7-1.7-4-2.7-6.4-2.7H64.2c-25.4,0-46.1-20.7-46.1-46.1
			v-204.3c0-25.4,20.7-46.1,46.1-46.1h205.5c5,0,9.1-4.1,9.1-9.1s-4.1-9.1-9.1-9.1H64.2c-35.4,0-64.2,28.8-64.2,64.2v204.4
			c0,35.4,28.8,64.2,64.2,64.2h34.2v88.6c0,3.6,2.2,6.9,5.5,8.3c1.1,0.5,2.4,0.7,3.6,0.7c2.3,0,4.6-0.9,6.3-2.5l99.3-95.1h186.1
			C425.3,386.121,449.3,369.721,458.9,345.421z"/>
		<path style="fill:#2C2F33;" d="M488.8,158.821c2.7-16.9-4.3-34.1-17.8-43.8c-7.7-5.5-16.7-8.4-26.1-8.4h-66.3v-47.4
			c0-21-6.2-36.2-18.4-45.1c-19.3-14.2-45.7-6.1-46.8-5.8c-3.8,1.2-6.3,4.7-6.3,8.6v54.7c0,42.1-49.1,56.5-51.1,57.1
			c-0.2,0.1-0.4,0.2-0.6,0.2c-3-4.6-8.2-7.7-14.2-7.7h-50.8c-9.3,0-16.9,7.6-16.9,16.9v147.7c0,9.3,7.6,16.9,16.9,16.9h50.8
			c4.7,0,8.9-1.9,12-5c8.1,8.1,19.3,13.1,31.7,13.1h133.8c30.3,0,49.6-15.9,53.1-43.6L488.8,158.821z M240,284.621h-48.3v-145.2H240
			V284.621z M470.9,156.021l-17.1,108.6c0,0.1,0,0.2,0,0.3c-2.3,18.5-14.1,27.9-35.1,27.9H284.9c-14.8,0-26.8-12-26.8-26.8v-119.5
			c0.9,0,1.8,0,2.7-0.3c2.6-0.7,64.4-18.6,64.4-74.6v-47.3c6.6-0.9,16.8-1.1,24.4,4.4c7.3,5.4,10.9,15.6,10.9,30.5v56.5
			c0,5,4.1,9.1,9.1,9.1H445c5.6,0,11,1.7,15.5,5C468.4,135.521,472.5,145.821,470.9,156.021z"/>
	</g>
</g>
<g>
</g>
<g>
</g>
<g>
</g>
<g>
</g>
<g>
</g>
<g>
</g>
<g>
</g>
<g>
</g>
<g>
</g>
<g>
</g>
<g>
</g>
<g>
</g>
<g>
</g>
<g>
</g>
<g>
</g>
</svg>
