<?xml version="1.0" encoding="iso-8859-1"?>
<!-- Generator: Adobe Illustrator 19.0.0, SVG Export Plug-In . SVG Version: 6.00 Build 0)  -->
<svg version="1.1" id="Capa_1" xmlns="http://www.w3.org/2000/svg" xmlns:xlink="http://www.w3.org/1999/xlink" x="0px" y="0px"
	 viewBox="0 0 409.6 409.6" style="enable-background:new 0 0 409.6 409.6;" xml:space="preserve">
<path style="fill:#64798A;" d="M36.537,197.064c0,0,60.583,5.795,64.271-42.672c0,0,4.741-120.64,63.217-143.82
	c0,0,15.147-8.465,42.111-7.867c37.407,0.829,72.603,19.894,94.015,50.578c16.468,23.6,30.855,58.795,27.186,107.957
	c0,0,0.577,94.141-30.753,117.479c0,0-122.023,14.751-188.401,2.634c0,0-13.17,1.263-35.823-25.972c0,0,21.072,4.9,22.126-11.958
	c0,0-32.662,6.322-40.564-28.975c0,0,16.858,4.214,43.725-13.697C97.647,200.751,71.833,219.717,36.537,197.064z"/>
<path style="fill:#F6C358;" d="M261.475,255.381h-0.005v-35.806H154.942v35.806l-21.865,5.592
	c4.692,37.318,36.539,108.659,75.13,108.659c38.589,0,70.438-71.341,75.128-108.66L261.475,255.381z"/>
<path style="fill:#FCD462;" d="M198.655,68.877h-64.417c-1.565,3.176-1.944,49.711-3.112,53.167
	c-10.234,0.012-18.527,8.624-18.527,24.454c0,15.407,7.857,31.972,17.712,32.867c10.507,38.224,52.792,79.681,77.896,79.681
	c23.249,0,67.388-41.457,77.896-79.681c2.442-5.855,3.531-9.242,3.915-16.232C292.848,111.611,250.253,68.877,198.655,68.877z"/>
<path style="fill:#64798A;" d="M142.851,211.055l-2.323-82.889c0,0,5.18-18.71,29.351-5.761l11.223-15.539v25.035
	c0,0,52.66-61.293,53.523-74.242c0.863-12.949-104.142-1.035-104.142-1.035l-25.628,83.227c0,0,13.227,36.94,13.227,39.53
	C118.083,181.971,142.851,211.055,142.851,211.055z"/>
<g>
	<path style="fill:#3A556A;" d="M334.407,151.921v31.414c8.674,0,15.706-7.032,15.706-15.707
		C350.113,158.953,343.081,151.921,334.407,151.921z"/>
	<path style="fill:#3A556A;" d="M292.276,127.825c-2.442,0-4.42,1.979-4.42,4.42v70.826c0,2.441,1.978,4.42,4.42,4.42h8.182v-79.666
		H292.276z"/>
</g>
<path style="fill:#27A2DB;" d="M330.529,136.361h-8.182v62.593h8.182c2.442,0,4.42-1.979,4.42-4.42v-53.752
	C334.949,138.34,332.971,136.361,330.529,136.361z"/>
<path style="fill:#44C4A1;" d="M322.462,125.535c-6.565-3.685-13.604-5.254-21.079-4.871c-1.58,0.081-2.801,1.312-2.801,2.712
	v88.622c0,1.462,1.329,2.71,2.983,2.711c7.494,0.004,14.451-1.511,20.799-4.741c0.945-0.481,1.518-1.407,1.518-2.372V127.86
	C323.88,126.932,323.345,126.031,322.462,125.535z"/>
<path style="fill:#E56353;" d="M306.674,120.741v93.704c1.547-0.152,3.06-0.407,4.557-0.703v-92.328
	C309.728,121.113,308.216,120.859,306.674,120.741z"/>
<g>
	<path style="fill:#3A556A;" d="M93.234,155.017v31.414c-8.674,0-15.706-7.032-15.706-15.707
		C77.527,162.049,84.56,155.017,93.234,155.017z"/>
	<path style="fill:#3A556A;" d="M135.365,130.921c2.442,0,4.42,1.979,4.42,4.42v70.826c0,2.441-1.978,4.42-4.42,4.42h-8.182v-79.666
		H135.365z"/>
</g>
<path style="fill:#27A2DB;" d="M97.111,139.458h8.182v62.593h-8.182c-2.442,0-4.42-1.979-4.42-4.42v-53.752
	C92.691,141.436,94.669,139.458,97.111,139.458z"/>
<path style="fill:#44C4A1;" d="M105.179,128.631c6.565-3.685,13.604-5.254,21.079-4.871c1.58,0.081,2.801,1.312,2.801,2.712v88.622
	c0,1.462-1.329,2.71-2.983,2.711c-7.494,0.004-14.451-1.511-20.799-4.741c-0.945-0.481-1.518-1.407-1.518-2.372v-79.736
	C103.761,130.029,104.295,129.128,105.179,128.631z"/>
<path style="fill:#E56353;" d="M120.967,123.837v93.704c-1.547-0.152-3.06-0.407-4.557-0.703V124.51
	C117.913,124.209,119.424,123.955,120.967,123.837z"/>
<g>
	<path style="fill:#3A556A;" d="M314.028,195.266c-2.058-0.5-4.087,0.746-4.616,2.77c-0.093,0.362-9.907,34.541-90.038,38.481
		c-2.644-3.324-8.388-5.643-15.098-5.643c-9.206,0-16.667,4.341-16.667,9.697c0,5.355,7.461,9.697,16.667,9.697
		c7.031,0,13.013-2.539,15.465-6.12c86.531-4.227,96.688-42.618,97.091-44.315C317.317,197.798,316.064,195.77,314.028,195.266z"/>
	<rect x="81.562" y="120.607" style="fill:#3A556A;" width="7.634" height="50.084"/>
	<rect x="338.432" y="120.607" style="fill:#3A556A;" width="7.634" height="50.084"/>
	<path style="fill:#3A556A;" d="M342.262,138.556c-4.221,0-7.637-3.419-7.637-7.636c0-63.769-51.882-115.647-115.65-115.647H208.66
		c-63.769,0-115.643,51.878-115.643,115.647c0,4.217-3.416,7.636-7.636,7.636s-7.636-3.419-7.636-7.636
		C77.744,58.731,136.471,0,208.66,0h10.316c72.188,0,130.923,58.731,130.923,130.92
		C349.898,135.137,346.483,138.556,342.262,138.556z"/>
</g>
<path style="fill:#27A2DB;" d="M154.942,255.381l-32.624,8.344l-39.142,10.012c-19.337,4.946-33.251,21.837-34.399,41.764
	L43.35,409.6h164.857V296.862L154.942,255.381z"/>
<path style="fill:#2D93BA;" d="M367.636,315.501c-1.15-19.927-15.062-36.818-34.398-41.764l-39.144-10.012l-32.619-8.344
	l-53.269,41.481V409.6h164.857L367.636,315.501z"/>
<polygon style="fill:#EBF0F3;" points="207.763,294.604 181.65,330.36 208.206,380.833 237.321,329.316 "/>
<polygon style="fill:#D15241;" points="217.715,327.629 197.044,327.629 192.013,363.112 208.206,380.833 208.206,380.833 
	222.702,363.706 "/>
<polygon style="fill:#1C75A1;" points="261.475,255.381 286.28,292.576 257.467,300.614 271.873,320.309 208.206,380.833 "/>
<polygon style="fill:#2D93BA;" points="154.495,255.381 129.69,292.576 158.503,300.614 144.097,320.309 208.206,380.833 "/>
<polygon style="fill:#E56353;" points="211.713,294.568 203.001,294.568 191.052,316.675 197.044,327.76 217.672,327.76 
	223.664,316.675 "/>
<g>
	<polygon style="fill:#D5D6DB;" points="261.475,255.381 207.763,294.604 230.798,327.629 	"/>
	<polygon style="fill:#D5D6DB;" points="154.794,255.381 208.506,294.604 185.472,327.629 	"/>
</g>
<rect x="273.51" y="375.245" style="fill:#FFFFFF;" width="66.007" height="14.761"/>
<g>
</g>
<g>
</g>
<g>
</g>
<g>
</g>
<g>
</g>
<g>
</g>
<g>
</g>
<g>
</g>
<g>
</g>
<g>
</g>
<g>
</g>
<g>
</g>
<g>
</g>
<g>
</g>
<g>
</g>
</svg>
